<svg xmlns="http://www.w3.org/2000/svg" xml:space="preserve" id="Layer_1" x="0" y="0" style="enable-background:new 0 0 200 200" version="1.1" viewBox="0 0 200 200"><style>.st0{fill:#686868}.st2,.st3{fill:#fff;stroke:#686868;stroke-width:5;stroke-miterlimit:10}.st3{stroke-width:2}</style><path d="M88.3 3.3c-37 4.1-68.4 28.8-80.8 63.8s-3.6 74.1 22.6 100.3 65.3 35 100.3 22.6 59.7-43.7 63.8-80.8C159.3 73.8 123.8 38.8 88.3 3.3z" class="st0"/><path d="M98.6 2.8c-3.6 0-6.7 0-10.3.5l106 106c.5-3.6.5-6.7.5-10.3V2.8H98.6zm73 42.7c-4.6 7.2-14.9 8.2-21.1 2.1-4.6-4.6-5.1-11.8-1.5-17.5 4.6-7.2 14.9-8.2 21.1-2.1 4.1 4.6 5.1 11.8 1.5 17.5z" style="fill:#3463ac"/><path d="m93.9 157.1-58.7-19.6V74.3L95 90.4zM143.3 130.2 99.1 158l1.1-67.6 43.1-24.7z" class="st2"/><path d="m88 67.7-30.7-8.2 22.4-13.1 30.8 8.2zM120.9 76.3l-30.8-8.2L112.6 55l30.7 8.2z" class="st3"/><path d="M66 80.2 35.2 72l22.5-13.1 30.7 8.2zM98.8 88.8l-30.7-8.1 22.4-13.1 30.8 8.1z" class="st3"/><path d="m49.2 109.4 12.6 25.4 12.7-18.6z" class="st0"/><path d="M56.9 118.8V96.6l9.8 2.6v22.3z" class="st0"/></svg>